<svg xmlns="http://www.w3.org/2000/svg" version="1.1" xmlns:xlink="http://www.w3.org/1999/xlink" xmlns:svgjs="http://svgjs.dev/svgjs" width="1500" height="401" viewBox="0 0 1500 401"><g transform="matrix(1,0,0,1,-0.9090909090909918,0.8178707606143973)"><svg viewBox="0 0 396 106" data-background-color="#293040" preserveAspectRatio="xMidYMid meet" height="401" width="1500" xmlns="http://www.w3.org/2000/svg" xmlns:xlink="http://www.w3.org/1999/xlink"><g id="tight-bounds" transform="matrix(1,0,0,1,0.2400000000000091,-0.21619526340430184)"><svg viewBox="0 0 395.52 106.43239052680858" height="106.43239052680858" width="395.52"><g><svg viewBox="0 0 569.8431564575706 153.34185216201817" height="106.43239052680858" width="395.52"><g transform="matrix(1,0,0,1,174.32315645757058,10.625403648880805)"><svg viewBox="0 0 395.52 132.09104486425656" height="132.09104486425656" width="395.52"><g id="textblocktransform"><svg viewBox="0 0 395.52 132.09104486425656" height="132.09104486425656" width="395.52" id="textblock"><g><svg viewBox="0 0 395.52 78.38532854426367" height="78.38532854426367" width="395.52"><g transform="matrix(1,0,0,1,0,0)"><svg width="395.52" viewBox="2.83 -37.55 231.08999999999997 45.8" height="78.38532854426367" data-palette-color="#d5b263"><path d="M32.08-17.5L32.08-8.91Q32.08-7.28 31.67-5.97 31.25-4.66 30.57-3.67 29.88-2.69 28.98-1.99 28.08-1.29 27.09-0.85 26.1-0.42 25.1-0.21 24.1 0 23.19 0L23.19 0 11.74 0 11.74-6.35 23.19-6.35Q24.46-6.35 25.1-7.01 25.73-7.67 25.73-8.91L25.73-8.91 25.73-17.46Q25.73-18.77 25.09-19.41 24.44-20.04 23.19-20.04L23.19-20.04 11.79-20.04Q10.5-20.04 9.84-19.4 9.18-18.75 9.18-17.5L9.18-17.5 9.18 8.25 2.83 8.25 2.83-17.5Q2.83-19.14 3.25-20.43 3.66-21.73 4.36-22.72 5.05-23.71 5.96-24.4 6.86-25.1 7.85-25.54 8.84-25.98 9.85-26.18 10.86-26.39 11.74-26.39L11.74-26.39 23.19-26.39Q24.83-26.39 26.12-25.98 27.42-25.56 28.41-24.88 29.39-24.19 30.09-23.29 30.79-22.39 31.23-21.4 31.67-20.41 31.87-19.41 32.08-18.41 32.08-17.5L32.08-17.5ZM64.74-17.65L64.74-8.74Q64.74-7.42 64.28-5.9 63.82-4.37 62.78-3.06 61.74-1.76 60.07-0.88 58.4 0 56 0L56 0 44.55 0Q43.23 0 41.71-0.46 40.18-0.93 38.88-1.97 37.57-3 36.69-4.68 35.81-6.35 35.81-8.74L35.81-8.74Q35.81-10.06 36.28-11.6 36.74-13.13 37.78-14.44 38.82-15.75 40.49-16.63 42.16-17.5 44.55-17.5L44.55-17.5 56-17.5 56-11.45 44.55-11.45Q43.26-11.45 42.55-10.66 41.84-9.86 41.84-8.69L41.84-8.69Q41.84-7.45 42.66-6.75 43.48-6.05 44.6-6.05L44.6-6.05 56-6.05Q57.3-6.05 58.01-6.84 58.71-7.62 58.71-8.79L58.71-8.79 58.71-17.65Q58.71-18.9 57.94-19.63 57.18-20.36 56-20.36L56-20.36 42.06-20.36 42.06-26.39 56-26.39Q57.32-26.39 58.85-25.93 60.37-25.46 61.68-24.43 62.99-23.39 63.86-21.72 64.74-20.04 64.74-17.65L64.74-17.65ZM93.26-26.39L93.26-20.04 78.97-20.04Q77.68-20.04 77.02-19.4 76.36-18.75 76.36-17.5L76.36-17.5 76.36 0 70.01 0 70.01-17.5Q70.01-19.14 70.43-20.43 70.84-21.73 71.54-22.72 72.24-23.71 73.14-24.4 74.04-25.1 75.03-25.54 76.02-25.98 77.03-26.18 78.05-26.39 78.93-26.39L78.93-26.39 93.26-26.39ZM122.62-17.65L122.62-8.74Q122.62-7.42 122.16-5.9 121.7-4.37 120.66-3.06 119.62-1.76 117.95-0.88 116.28 0 113.88 0L113.88 0 102.43 0Q101.12 0 99.59-0.46 98.06-0.93 96.76-1.97 95.45-3 94.57-4.68 93.69-6.35 93.69-8.74L93.69-8.74Q93.69-10.06 94.16-11.6 94.62-13.13 95.66-14.44 96.7-15.75 98.37-16.63 100.04-17.5 102.43-17.5L102.43-17.5 113.88-17.5 113.88-11.45 102.43-11.45Q101.14-11.45 100.43-10.66 99.72-9.86 99.72-8.69L99.72-8.69Q99.72-7.45 100.54-6.75 101.36-6.05 102.48-6.05L102.48-6.05 113.88-6.05Q115.18-6.05 115.89-6.84 116.59-7.62 116.59-8.79L116.59-8.79 116.59-17.65Q116.59-18.9 115.83-19.63 115.06-20.36 113.88-20.36L113.88-20.36 99.94-20.36 99.94-26.39 113.88-26.39Q115.2-26.39 116.73-25.93 118.25-25.46 119.56-24.43 120.87-23.39 121.75-21.72 122.62-20.04 122.62-17.65L122.62-17.65ZM157-37.55L157-8.91Q157-7.28 156.58-5.97 156.17-4.66 155.48-3.67 154.8-2.69 153.9-1.99 152.99-1.29 152-0.85 151.02-0.42 150-0.21 148.99 0 148.09 0L148.09 0 136.64 0Q135 0 133.71-0.42 132.41-0.83 131.42-1.53 130.43-2.22 129.74-3.13 129.04-4.03 128.6-5.02 128.16-6.01 127.96-7.02 127.75-8.03 127.75-8.91L127.75-8.91 127.75-17.5Q127.75-19.95 128.64-21.64 129.53-23.34 130.86-24.4 132.19-25.46 133.75-25.93 135.32-26.39 136.64-26.39L136.64-26.39 148.09-26.39 148.09-20.04 136.68-20.04Q135.41-20.04 134.76-19.4 134.1-18.75 134.1-17.5L134.1-17.5 134.1-8.96Q134.1-7.67 134.74-7.01 135.39-6.35 136.64-6.35L136.64-6.35 148.09-6.35Q149.38-6.35 150.01-7.01 150.65-7.67 150.65-8.91L150.65-8.91 150.65-37.55 157-37.55ZM169.49-37.55L169.49-31.81 163.15-31.81 163.15-37.55 169.49-37.55ZM169.49-26.39L169.49 0 163.15 0 163.15-26.39 169.49-26.39ZM201.08-8.91L201.08-8.91Q201.08-7.28 200.67-5.97 200.25-4.66 199.57-3.67 198.89-2.69 197.98-1.99 197.08-1.29 196.09-0.85 195.1-0.42 194.09-0.21 193.08 0 192.17 0L192.17 0 174.99 0 174.99-6.35 192.12-6.35Q193.42-6.35 194.08-7.01 194.74-7.67 194.74-8.91L194.74-8.91Q194.61-11.45 192.17-11.45L192.17-11.45 182.33-11.45Q180.23-11.45 178.77-12.18 177.3-12.92 176.39-14.01 175.47-15.11 175.07-16.38 174.67-17.65 174.67-18.75L174.67-18.75Q174.67-20.87 175.42-22.33 176.18-23.78 177.33-24.68 178.48-25.59 179.82-25.99 181.16-26.39 182.33-26.39L182.33-26.39 197.93-26.39 197.93-20.04 182.38-20.04Q181.89-20.04 181.61-19.93 181.33-19.82 181.2-19.64 181.06-19.46 181.04-19.25 181.02-19.04 181.02-18.85L181.02-18.85Q181.04-18.46 181.16-18.24 181.28-18.02 181.47-17.92 181.65-17.82 181.88-17.81 182.11-17.8 182.33-17.8L182.33-17.8 192.17-17.8Q194.61-17.8 196.32-16.92 198.03-16.04 199.08-14.71 200.13-13.38 200.61-11.82 201.08-10.25 201.08-8.91ZM233.92-17.65L233.92-17.65Q233.92-16.33 233.45-14.81 232.99-13.28 231.95-11.98 230.92-10.67 229.24-9.79 227.57-8.91 225.18-8.91L225.18-8.91 213.73-8.91 213.73-14.94 225.18-14.94Q226.47-14.94 227.18-15.73 227.89-16.53 227.89-17.7L227.89-17.7Q227.89-18.95 227.09-19.65 226.3-20.36 225.18-20.36L225.18-20.36 213.73-20.36Q212.43-20.36 211.73-19.57 211.02-18.77 211.02-17.6L211.02-17.6 211.02-8.74Q211.02-7.47 211.81-6.76 212.6-6.05 213.78-6.05L213.78-6.05 225.18-6.05 225.18 0 213.73 0Q212.41 0 210.88-0.46 209.36-0.93 208.05-1.97 206.75-3 205.87-4.68 204.99-6.35 204.99-8.74L204.99-8.74 204.99-17.65Q204.99-18.97 205.45-20.5 205.92-22.02 206.95-23.33 207.99-24.63 209.66-25.51 211.34-26.39 213.73-26.39L213.73-26.39 225.18-26.39Q226.5-26.39 228.02-25.93 229.55-25.46 230.85-24.43 232.16-23.39 233.04-21.72 233.92-20.04 233.92-17.65Z" opacity="1" transform="matrix(1,0,0,1,0,0)" fill="#d5b263" class="wordmark-text-0" data-fill-palette-color="primary" id="text-0"></path></svg></g></svg></g><g transform="matrix(1,0,0,1,41.52959999999999,96.89022336567926)"><svg viewBox="0 0 312.4608 35.2008214985773" height="35.2008214985773" width="312.4608"><g transform="matrix(1,0,0,1,0,0)"><svg width="312.4608" viewBox="5.03 -39.11 463.28000000000003 52.199999999999996" height="35.2008214985773" data-palette-color="#d5b263"><path d="M24.61 0L5.03 0 5.03-35.77 11.08-35.77 11.08-4.3 25.42-4.3 24.61 0ZM52.68-5.32L52.68-2.37Q51.61-1.61 50.36-1.07 49.12-0.54 47.8-0.18 46.48 0.17 45.18 0.33 43.87 0.49 42.7 0.49L42.7 0.49Q39.99 0.49 37.66-0.34 35.32-1.17 33.6-2.78 31.88-4.39 30.91-6.75 29.93-9.11 29.93-12.16L29.93-12.16Q29.93-15.41 31.03-18.04 32.13-20.68 33.97-22.52 35.81-24.37 38.24-25.37 40.67-26.37 43.31-26.37L43.31-26.37Q45.51-26.37 47.4-25.65 49.29-24.93 50.67-23.51 52.05-22.09 52.83-19.97 53.61-17.85 53.61-15.04L53.61-15.04Q53.61-14.36 53.55-13.59 53.49-12.82 53.34-12.08L53.34-12.08 36.06-12.08Q36.06-10.11 36.75-8.59 37.45-7.08 38.72-6.07 39.99-5.05 41.77-4.53 43.55-4 45.7-4L45.7-4Q46.31-4 47.13-4.05 47.95-4.1 48.87-4.25 49.8-4.39 50.78-4.65 51.76-4.91 52.68-5.32L52.68-5.32ZM36.06-14.97L48.12-14.97Q48.12-16.75 47.67-18.09 47.21-19.43 46.43-20.34 45.65-21.24 44.61-21.69 43.58-22.14 42.38-22.14L42.38-22.14Q41.04-22.14 39.89-21.61 38.74-21.07 37.89-20.1 37.03-19.14 36.55-17.82 36.06-16.5 36.06-14.97L36.06-14.97ZM62.57-7.15L62.57-21.66 57.37-21.66 57.81-24.44Q59.74-24.93 60.9-25.54 62.06-26.15 62.82-27.04 63.59-27.93 64.17-29.21 64.74-30.49 65.5-32.32L65.5-32.32 68.33-32.32 68.33-25.88 77.63-25.88 76.58-21.66 68.5-21.66 68.5-8.33Q68.5-7.13 68.84-6.31 69.18-5.49 69.82-4.98 70.45-4.47 71.35-4.24 72.24-4 73.36-4L73.36-4Q74.43-4 75.5-4.2 76.56-4.39 77.51-4.76L77.51-4.76 77.51-1.78Q75.85-0.66 73.96-0.09 72.07 0.49 70.14 0.49L70.14 0.49Q66.45 0.49 64.51-1.51 62.57-3.52 62.57-7.15L62.57-7.15ZM101.28 0L92.03-25.88 98.57-25.88 103.6-9.3 104.73-4.44 105.21-4.44 106.31-9.3 111.39-25.88 116.98-25.88 103.09 13.09 97.62 13.09 103.09 0 101.28 0ZM132.51 0.49L132.51 0.49Q129.46 0.49 127.12-0.54 124.79-1.56 123.21-3.31 121.62-5.05 120.8-7.35 119.98-9.64 119.98-12.21L119.98-12.21Q119.98-15.16 121.03-17.74 122.08-20.31 123.97-22.23 125.87-24.15 128.48-25.26 131.09-26.37 134.22-26.37L134.22-26.37Q137.27-26.37 139.61-25.34 141.96-24.32 143.54-22.56 145.13-20.8 145.95-18.49 146.76-16.19 146.76-13.62L146.76-13.62Q146.76-10.64 145.7-8.07 144.64-5.49 142.74-3.59 140.83-1.68 138.22-0.6 135.61 0.49 132.51 0.49ZM133.53-3.74L133.53-3.74Q135.09-3.74 136.39-4.38 137.68-5.03 138.61-6.19 139.54-7.35 140.05-8.96 140.56-10.57 140.56-12.52L140.56-12.52Q140.56-14.43 140.06-16.16 139.56-17.9 138.61-19.23 137.66-20.56 136.29-21.35 134.92-22.14 133.19-22.14L133.19-22.14Q131.6-22.14 130.31-21.48 129.02-20.83 128.1-19.65 127.18-18.48 126.67-16.86 126.16-15.23 126.16-13.31L126.16-13.31Q126.16-11.38 126.66-9.64 127.16-7.91 128.11-6.59 129.06-5.27 130.43-4.5 131.8-3.74 133.53-3.74ZM153.35-8.62L153.35-25.88 159.26-25.88 159.26-9.55Q159.26-8.3 159.6-7.29 159.95-6.27 160.56-5.54 161.17-4.81 162.02-4.41 162.88-4 163.9-4L163.9-4Q164.78-4 165.62-4.3 166.46-4.59 167.25-5.07 168.03-5.54 168.74-6.16 169.44-6.79 170.08-7.47L170.08-7.47 170.08-25.88 175.99-25.88 175.99 0 171.2 0 170.32-4.37Q169.44-3.56 168.42-2.7 167.39-1.83 166.24-1.12 165.1-0.42 163.82 0.04 162.53 0.49 161.14 0.49L161.14 0.49Q159.56 0.49 158.14-0.15 156.72-0.78 155.66-1.95 154.6-3.13 153.98-4.81 153.35-6.49 153.35-8.62L153.35-8.62ZM184.14 0L184.14-25.88 188.92-25.88 189.75-18.16Q190.09-18.8 190.46-19.47 190.83-20.14 191.19-20.76 191.56-21.39 191.88-21.9 192.19-22.41 192.41-22.75L192.41-22.75Q192.93-23.51 193.57-24.18 194.22-24.85 194.98-25.33 195.73-25.81 196.61-26.09 197.49-26.37 198.52-26.37L198.52-26.37Q199.23-26.37 199.93-26.2 200.64-26.03 201.13-25.66L201.13-25.66 200.5-20.21Q200.06-20.34 199.47-20.37 198.88-20.41 198.42-20.41L198.42-20.41Q196.86-20.41 195.64-19.96 194.42-19.51 193.43-18.71 192.44-17.92 191.62-16.85 190.8-15.77 190.05-14.53L190.05-14.53 190.05 0 184.14 0ZM215.68-1.22L216.73-5.66 217.17-5.93Q218.12-5.42 219.15-5 220.19-4.59 221.22-4.31 222.24-4.03 223.22-3.88 224.2-3.74 225.05-3.74L225.05-3.74Q227.27-3.74 228.53-4.66 229.79-5.59 229.79-7.03L229.79-7.03Q229.79-8.01 229.21-8.64 228.64-9.28 227.7-9.73 226.76-10.18 225.56-10.52 224.37-10.86 223.11-11.24 221.85-11.62 220.66-12.11 219.46-12.6 218.52-13.35 217.58-14.11 217.01-15.2 216.43-16.28 216.43-17.87L216.43-17.87Q216.43-19.65 217.2-21.22 217.97-22.78 219.4-23.91 220.83-25.05 222.87-25.71 224.9-26.37 227.44-26.37L227.44-26.37Q228.08-26.37 228.92-26.32 229.76-26.27 230.68-26.16 231.59-26.05 232.52-25.88 233.45-25.71 234.25-25.44L234.25-25.44 233.18-21.07 232.64-20.75Q231.91-21.12 231.07-21.39 230.23-21.66 229.38-21.81 228.54-21.97 227.75-22.06 226.96-22.14 226.34-22.14L226.34-22.14Q224.2-22.14 222.99-21.29 221.78-20.43 221.78-18.99L221.78-18.99Q221.78-17.99 222.37-17.35 222.95-16.7 223.89-16.25 224.83-15.8 226.05-15.47 227.27-15.14 228.53-14.76 229.79-14.38 231.01-13.89 232.23-13.4 233.17-12.65 234.11-11.89 234.69-10.79 235.28-9.69 235.28-8.08L235.28-8.08Q235.28-6.27 234.5-4.7 233.72-3.13 232.28-1.98 230.84-0.83 228.81-0.17 226.78 0.49 224.32 0.49L224.32 0.49Q222.29 0.49 220.02 0.05 217.75-0.39 215.68-1.22L215.68-1.22ZM252.73 0.49L252.73 0.49Q249.68 0.49 247.35-0.54 245.02-1.56 243.43-3.31 241.85-5.05 241.03-7.35 240.21-9.64 240.21-12.21L240.21-12.21Q240.21-15.16 241.26-17.74 242.31-20.31 244.2-22.23 246.09-24.15 248.71-25.26 251.32-26.37 254.44-26.37L254.44-26.37Q257.49-26.37 259.84-25.34 262.18-24.32 263.77-22.56 265.36-20.8 266.17-18.49 266.99-16.19 266.99-13.62L266.99-13.62Q266.99-10.64 265.93-8.07 264.87-5.49 262.96-3.59 261.06-1.68 258.45-0.6 255.83 0.49 252.73 0.49ZM253.76-3.74L253.76-3.74Q255.32-3.74 256.62-4.38 257.91-5.03 258.84-6.19 259.77-7.35 260.28-8.96 260.79-10.57 260.79-12.52L260.79-12.52Q260.79-14.43 260.29-16.16 259.79-17.9 258.84-19.23 257.89-20.56 256.52-21.35 255.15-22.14 253.42-22.14L253.42-22.14Q251.83-22.14 250.54-21.48 249.24-20.83 248.33-19.65 247.41-18.48 246.9-16.86 246.39-15.23 246.39-13.31L246.39-13.31Q246.39-11.38 246.89-9.64 247.39-7.91 248.34-6.59 249.29-5.27 250.66-4.5 252.03-3.74 253.76-3.74ZM273.58-8.62L273.58-25.88 279.49-25.88 279.49-9.55Q279.49-8.3 279.83-7.29 280.17-6.27 280.78-5.54 281.39-4.81 282.25-4.41 283.1-4 284.13-4L284.13-4Q285.01-4 285.85-4.3 286.69-4.59 287.47-5.07 288.25-5.54 288.96-6.16 289.67-6.79 290.3-7.47L290.3-7.47 290.3-25.88 296.21-25.88 296.21 0 291.43 0 290.55-4.37Q289.67-3.56 288.64-2.7 287.62-1.83 286.47-1.12 285.32-0.42 284.04 0.04 282.76 0.49 281.37 0.49L281.37 0.49Q279.78 0.49 278.37-0.15 276.95-0.78 275.89-1.95 274.83-3.13 274.2-4.81 273.58-6.49 273.58-8.62L273.58-8.62ZM304.36 0L304.36-39.11 310.27-39.11 310.27 0 304.36 0ZM346.82-7.45L346.82-21.07Q345.23-21.75 343.97-21.95 342.71-22.14 341.91-22.14L341.91-22.14Q339.93-22.14 338.38-21.44 336.83-20.73 335.78-19.48 334.73-18.24 334.18-16.52 333.63-14.79 333.63-12.77L333.63-12.77Q333.63-10.94 334.1-9.35 334.56-7.76 335.41-6.57 336.27-5.37 337.48-4.69 338.69-4 340.17-4L340.17-4Q341.93-4 343.61-4.92 345.28-5.83 346.82-7.45L346.82-7.45ZM346.82-25.76L346.82-39.11 352.75-39.11 352.75 0 347.91 0 347.11-4.32Q346.25-3.54 345.24-2.7 344.23-1.86 343.03-1.15 341.84-0.44 340.46 0.02 339.08 0.49 337.51 0.49L337.51 0.49Q335.17 0.49 333.31-0.55 331.46-1.59 330.15-3.31 328.85-5.03 328.16-7.25 327.48-9.47 327.48-11.84L327.48-11.84Q327.48-14.97 328.61-17.63 329.75-20.29 331.73-22.23 333.71-24.17 336.37-25.27 339.03-26.37 342.08-26.37L342.08-26.37Q343.47-26.37 344.7-26.17 345.94-25.98 346.82-25.76L346.82-25.76ZM374.86-3.81L374.86-3.81Q374.23-3.27 373.34-2.53 372.45-1.78 371.36-1.11 370.28-0.44 368.99 0.02 367.71 0.49 366.3 0.49L366.3 0.49Q364.86 0.49 363.62-0.04 362.39-0.56 361.47-1.5 360.56-2.44 360.03-3.75 359.51-5.05 359.51-6.64L359.51-6.64Q359.51-8.3 360.18-9.89 360.85-11.47 362.43-12.72 364-13.96 366.59-14.73 369.18-15.5 372.98-15.5L372.98-15.5 374.77-15.5 374.77-17.5Q374.77-18.58 374.4-19.43 374.03-20.29 373.38-20.9 372.72-21.51 371.8-21.83 370.89-22.14 369.76-22.14L369.76-22.14Q368.88-22.14 367.88-21.94 366.88-21.73 365.9-21.36 364.93-21 364-20.5 363.07-20 362.34-19.41L362.34-19.41 361.9-19.65 360.78-23.75Q363.73-25.29 366.27-25.83 368.81-26.37 371.03-26.37L371.03-26.37Q373.33-26.37 375.12-25.9 376.92-25.44 378.16-24.48 379.41-23.51 380.05-22.03 380.7-20.56 380.7-18.53L380.7-18.53 380.7-6.57Q380.7-6.2 380.76-5.76 380.82-5.32 381-4.93 381.19-4.54 381.54-4.27 381.9-4 382.48-4L382.48-4Q382.82-4 383.31-4.1 383.8-4.2 384.29-4.42L384.29-4.42 384.29-1.49Q382.97-0.59 381.66-0.05 380.36 0.49 379.11 0.49L379.11 0.49Q378.14 0.49 377.43 0.12 376.72-0.24 376.23-0.84 375.74-1.44 375.41-2.21 375.08-2.98 374.86-3.81ZM374.77-6.96L374.77-12.62 373.23-12.62Q370.69-12.62 369.14-12.27 367.59-11.91 366.73-11.29 365.88-10.67 365.6-9.85 365.32-9.03 365.32-8.08L365.32-8.08Q365.32-7.08 365.61-6.32 365.9-5.57 366.41-5.05 366.91-4.54 367.59-4.27 368.27-4 369.05-4L369.05-4Q369.64-4 370.28-4.14 370.91-4.27 371.61-4.61 372.3-4.96 373.08-5.52 373.86-6.08 374.77-6.96L374.77-6.96ZM389.56 0L389.56-25.88 394.34-25.88 395.17-21.46Q396.03-22.24 397.1-23.11 398.18-23.97 399.45-24.69 400.72-25.42 402.12-25.89 403.52-26.37 405.04-26.37L405.04-26.37Q406.82-26.37 408.27-25.7 409.73-25.02 410.75-23.82 411.78-22.61 412.34-20.92 412.9-19.24 412.9-17.24L412.9-17.24 412.9 0 406.97 0 406.97-16.53Q406.97-17.85 406.6-18.85 406.23-19.85 405.59-20.51 404.94-21.17 404.05-21.51 403.16-21.85 402.13-21.85L402.13-21.85Q400.33-21.85 398.71-20.92 397.1-20 395.47-18.48L395.47-18.48 395.47 0 389.56 0ZM439.75-5.32L439.75-2.37Q438.02-0.98 435.9-0.24 433.77 0.49 431.33 0.49L431.33 0.49Q428.6 0.49 426.4-0.43 424.2-1.34 422.66-2.97 421.12-4.59 420.29-6.85 419.46-9.11 419.46-11.82L419.46-11.82Q419.46-15.01 420.59-17.69 421.71-20.36 423.65-22.29 425.59-24.22 428.23-25.29 430.87-26.37 433.89-26.37L433.89-26.37Q434.55-26.37 435.31-26.31 436.07-26.25 436.86-26.12 437.65-26 438.42-25.79 439.19-25.59 439.85-25.29L439.85-25.29 438.8-20.75 438.29-20.51Q437.85-20.83 437.25-21.13 436.65-21.44 435.97-21.66 435.28-21.88 434.55-22.01 433.82-22.14 433.11-22.14L433.11-22.14Q431.55-22.14 430.19-21.53 428.84-20.92 427.83-19.75 426.81-18.58 426.23-16.88 425.64-15.19 425.64-13.04L425.64-13.04Q425.64-10.79 426.28-9.11 426.91-7.42 428.03-6.29 429.16-5.15 430.69-4.58 432.23-4 434.04-4L434.04-4Q435.16-4 436.6-4.27 438.04-4.54 439.75-5.32L439.75-5.32ZM467.39-5.32L467.39-2.37Q466.31-1.61 465.07-1.07 463.82-0.54 462.5-0.18 461.19 0.17 459.88 0.33 458.57 0.49 457.4 0.49L457.4 0.49Q454.69 0.49 452.36-0.34 450.03-1.17 448.31-2.78 446.59-4.39 445.61-6.75 444.63-9.11 444.63-12.16L444.63-12.16Q444.63-15.41 445.73-18.04 446.83-20.68 448.67-22.52 450.52-24.37 452.95-25.37 455.37-26.37 458.01-26.37L458.01-26.37Q460.21-26.37 462.1-25.65 463.99-24.93 465.37-23.51 466.75-22.09 467.53-19.97 468.31-17.85 468.31-15.04L468.31-15.04Q468.31-14.36 468.25-13.59 468.19-12.82 468.05-12.08L468.05-12.08 450.76-12.08Q450.76-10.11 451.46-8.59 452.15-7.08 453.42-6.07 454.69-5.05 456.47-4.53 458.26-4 460.4-4L460.4-4Q461.01-4 461.83-4.05 462.65-4.1 463.58-4.25 464.51-4.39 465.48-4.65 466.46-4.91 467.39-5.32L467.39-5.32ZM450.76-14.97L462.82-14.97Q462.82-16.75 462.37-18.09 461.92-19.43 461.14-20.34 460.36-21.24 459.32-21.69 458.28-22.14 457.08-22.14L457.08-22.14Q455.74-22.14 454.59-21.61 453.45-21.07 452.59-20.1 451.74-19.14 451.25-17.82 450.76-16.5 450.76-14.97L450.76-14.97Z" opacity="1" transform="matrix(1,0,0,1,0,0)" fill="#d5b263" class="slogan-text-1" data-fill-palette-color="secondary" id="text-1"></path></svg></g></svg></g></svg></g></svg></g><g><svg viewBox="0 0 155.81826163615497 153.34185216201817" height="153.34185216201817" width="155.81826163615497"><g><svg xmlns="http://www.w3.org/2000/svg" xmlns:xlink="http://www.w3.org/1999/xlink" version="1.1" x="0" y="0" viewBox="4.9352023547069255 5.695449555959597 89.97753934509005 88.54753217806108" enable-background="new 0 0 100 100" xml:space="preserve" height="153.34185216201817" width="155.81826163615497" class="icon-icon-0" data-fill-palette-color="accent" id="icon-0"><path d="M27.5 64.3c-1.9-2.9-2.9-6.2-3.6-9.5-0.2-1.2-0.5-2.3-0.6-3.5-0.1-1.2-0.7-1.8-1.9-2.1-1.7-0.5-3.3-1.2-5-1.7-4.4-1.4-7.2-4.8-9-8.7-1.8-3.8-2.9-7.8-2.3-12.3 0.6-4.7 2.7-8.3 6-11.3 5.2-4.7 11.4-6.4 18.2-5 5.6 1.1 9.9 4.4 12.9 9.2 0.9 1.4 1.8 2 3.4 1.9 1.7-0.1 3.3 0 5 0.1 3.1 0.1 6 1 8.4 3 3.2 2.6 5.9 5.7 7.7 9.3 1.7 3.3 3.9 6.2 6.3 8.9 0.6 0.6 1.1 0.8 1.9 0.6 0.5-0.1 1-0.2 1.4-0.4 6.3-3 11.5-7.3 14-14 0.8-2.2 1.3-4.6 0.6-7-0.2-0.7-0.3-1.4-0.5-2.1-0.6-3.6-2.6-6.2-5.6-7.9-4-2.3-8.5-2.9-13-1.8-2 0.5-3.8 1.8-5.7 2.8-0.7-1.1-0.7-2 0.4-2.7C69.1 8.4 71.3 7 73.7 6c1.5-0.5 3.3-0.3 5 0 5 0.9 9.3 3.3 12.4 7.5 1.2 1.6 2.1 3.6 2.7 5.5 0.7 2.2 1.2 4.5 1.1 6.8-0.1 2.5-0.2 5.1-2 7.2-0.2 0.2-0.4 0.5-0.5 0.8-1.3 3.5-4.1 5.8-6.6 8.4-0.7 0.7-1.7 1.1-2.6 1.6-1.9 1-3.7 2-5.7 3.1 0.3 0.7 0.4 1.1 0.7 1.5 3.2 4.5 6.5 9.1 9.7 13.6 1.5 2.1 2.8 4.2 4.1 6.4 1.7 3 2.2 6.3 1.5 9.7-0.3 1.4-0.6 2.8-0.8 4.2-0.5 3.3-2.5 5.4-5.1 7.2-3.2 2.2-6.7 3.3-10.5 3.7-2.6 0.3-5.2 0.6-7.8 0.9-3.4 0.4-6.7 0-9.7-1.7-1.2-0.7-2.3-0.7-3.7-0.3-2.8 0.7-5.5 1.6-8.4 1.9-2.7 0.3-5.6-0.1-8.3-0.1-5.5-0.1-10.5-1.8-15.4-4-5.5-2.4-8.3-7.1-9.1-12.9-0.3-2.1-0.2-4.3-0.1-6.5 0.1-2.4 1.4-4.2 3.7-5.1 2-0.8 4-1.1 6.1-0.9 0.9 0.1 1.9 0.2 2.8 0.3C27.3 64.6 27.4 64.4 27.5 64.3zM65.2 87.2c1.2 0.2 1.9 0.5 2.6 0.4 2.1-0.1 4.1-0.4 6.2-0.6 3.8-0.3 7.3-1.6 10.4-3.8 1.3-0.9 2.3-2 2.8-3.5 0.4-1.2 0.7-2.5 1.1-3.7 1.5-4.5 0.1-8.3-2.8-11.7-4.2-4.9-8.5-9.7-12.7-14.6-1.1-1.3-2.3-2-4.1-2.1-1.6-0.1-3.3-0.4-4.9-1-2-0.7-4-1.6-6-2.4-2.6-1-4.9-2.4-6.6-4.6-0.4-0.6-0.9-1.1-1.5-1.5C47 36 45 33.3 43.7 30.1c-0.5-1.1-1.1-1.6-2.4-1.3-0.9 0.3-1.9 0.3-2.8 0.6-0.7 0.3-1.5 0.7-1.9 1.3-1.8 2.9-3.5 5.9-5.1 8.9-0.7 1.3-1.1 2.8-0.7 4.1 2.6 0.4 5 0.5 7.2 1.1 5.3 1.4 10.1 3.9 14.7 6.9 7 4.6 12.2 10.8 15.2 18.6C70.2 76.1 70.4 81.8 65.2 87.2zM35.1 48.3c0 0.1-0.1 0.2-0.1 0.3-0.6 0-1.3 0.1-1.9 0.1-0.2 0-0.5 0.1-0.7 0.1-1.5 0.4-2 0.9-1.5 2.4 0.6 2 1 4.1 2.1 5.8 2 3.2 3.8 6.5 5 10 0.4 1.2 1.1 2 2.1 2.8 2.9 2.1 5.8 4.2 8.4 6.6 2.4 2.2 4.5 4.7 6.7 7.1 1.7 1.8 2.2 2 4.3 0.8 2.3-1.3 4.2-3.2 5.5-5.5 0.8-1.5 1.4-3 1-4.8-1.2-5.1-3.9-9.5-7.7-13-5.1-4.7-11.4-7.9-17.6-11C39 49.1 37 48.8 35.1 48.3zM39.2 21.5c-0.4-2.3-2.3-3.4-3.8-4.7-3.7-3.3-7.9-5.1-12.9-4.4-4.5 0.7-8.2 2.9-11.1 6.5-0.6 0.7-1.2 1.5-1.5 2.4-1.5 4.6-1 9.1 0.8 13.5 2 4.7 5.9 7.1 10.3 9 0.6 0.3 1.3 0.2 1.9 0.2 0.2-0.5 0.4-0.7 0.4-0.9 0.8-4.9 3.6-9 5.3-13.5 0.2-0.6 0.6-1.1 1-1.6 2.5-2.7 5.2-5.1 8.9-6.1C38.8 21.9 39 21.7 39.2 21.5zM39.6 73.9c-0.4 1.5-0.8 2.7-1.2 3.9-0.6 2.1-1.9 3.9-3.4 5.4-1.2 1.1-2.8 1.4-3.4 0.6-0.5-0.7-0.1-1.6 1.3-2.7 1.7-1.4 2.1-2.7 1.3-4.8-0.3-0.7-0.8-1.4-1-2.2-0.8-2.9-2.9-3.9-5.6-4.4-4-0.6-7.8 1.2-9.5 4.9-0.4 0.8-0.5 2.1-0.1 3 1.6 3.5 3.9 6.5 7.6 7.9 7.3 2.9 14.8 4.2 22.7 2.2 1.5-0.4 3-0.8 4.8-1.4C49.5 80.9 44.7 77.4 39.6 73.9zM47.1 28.7c0.4 2.2 2.5 5.6 4.3 7.6 4.1 4.6 9.7 6.3 15.1 8.3 0.3 0.1 0.8-0.2 1.5-0.3-2.1-5.2-4.9-9.6-9.5-12.8C55.1 29 51.3 28.1 47.1 28.7z" fill="#c9ad8b" data-fill-palette-color="accent"></path></svg></g></svg></g></svg></g><defs></defs></svg><rect width="395.52" height="106.43239052680858" fill="none" stroke="none" visibility="hidden"></rect></g></svg></g></svg>